<svg width="305" height="97" viewBox="0 0 305 97" fill="none" xmlns="http://www.w3.org/2000/svg">
<g clip-path="url(#clip0_14534_163180)">
<path d="M4.52226 92.1456L0 76.542H1.64446L5.50332 90.0247L9.5584 76.542H11.3897L15.4448 90.0247L19.3037 76.542H20.9481L16.4259 92.1363H14.5478L10.4741 78.5882L6.4003 92.1363H4.52226H4.5316L4.52226 92.1456Z" fill="#17479E"/>
<path d="M27.04 92.4072C25.4142 92.4072 24.0127 91.8559 22.8728 90.7347C21.7329 89.5948 21.1816 88.2119 21.1816 86.5675C21.1816 84.923 21.7329 83.5402 22.8728 82.419C24.0127 81.279 25.4142 80.7278 27.04 80.7278C28.6658 80.7278 30.0486 81.279 31.1792 82.419C32.3191 83.5402 32.8984 84.9137 32.8984 86.5675C32.8984 88.2213 32.3191 89.5948 31.1792 90.7347C30.0393 91.8559 28.6564 92.4072 27.04 92.4072ZM27.04 90.9776C28.264 90.9776 29.3198 90.5478 30.1607 89.7162C31.011 88.8379 31.4315 87.7915 31.4315 86.5768C31.4315 85.3622 31.0017 84.297 30.1607 83.4561C29.3105 82.5965 28.264 82.1667 27.04 82.1667C25.816 82.1667 24.7602 82.5965 23.9193 83.4561C23.069 84.3063 22.6486 85.3528 22.6486 86.5768C22.6486 87.8008 23.0784 88.8473 23.9193 89.7162C24.7695 90.5665 25.816 90.9776 27.04 90.9776Z" fill="#17479E"/>
<path d="M36.8227 82.8393C37.5141 81.4845 38.6727 80.8118 40.3452 80.8118V82.2413C38.3177 82.2413 36.8227 83.3812 36.8227 85.932V92.1268H35.3464V80.98H36.8227V82.83V82.8393Z" fill="#17479E"/>
<path d="M42.3447 92.1455V75.8691H43.821V92.1455H42.3447Z" fill="#17479E"/>
<path d="M56.5189 76.5325H57.9951V92.1268H56.5189V89.9405C55.4911 91.5662 53.9961 92.3885 52.0153 92.3885C50.4269 92.3885 49.0721 91.8372 47.9415 90.6973C46.8203 89.5574 46.269 88.1745 46.269 86.5581C46.269 84.9417 46.8203 83.5495 47.9415 82.4096C49.0814 81.2697 50.4362 80.7184 52.0153 80.7184C53.9961 80.7184 55.4911 81.55 56.5189 83.1664V76.5232V76.5325ZM52.1368 90.9776C53.3701 90.9776 54.4166 90.5478 55.2575 89.7162C56.1078 88.8379 56.5189 87.7915 56.5189 86.5768C56.5189 85.3622 56.0891 84.297 55.2575 83.4561C54.4072 82.5965 53.3608 82.1667 52.1368 82.1667C50.9128 82.1667 49.8569 82.5965 49.016 83.4561C48.1658 84.3063 47.7453 85.3528 47.7453 86.5768C47.7453 87.8008 48.1751 88.8473 49.016 89.7162C49.8663 90.5665 50.9128 90.9776 52.1368 90.9776Z" fill="#17479E"/>
<path d="M81.8211 84.7175V85.5211C81.8211 87.4552 81.1297 89.0903 79.7468 90.4264C78.364 91.7345 76.514 92.4072 74.1968 92.4072C71.8796 92.4072 69.8708 91.6224 68.3384 90.0714C66.7967 88.5016 66.0212 86.5956 66.0212 84.3344C66.0212 82.0733 66.8061 80.1672 68.3384 78.6069C69.8801 77.0372 71.8422 76.271 74.1968 76.271C75.6451 76.271 76.9625 76.6261 78.1678 77.3175C79.3731 78.0089 80.3075 78.9432 80.9522 80.1018L79.5693 80.9054C78.5883 79.0086 76.5233 77.7846 74.1968 77.7846C72.2627 77.7846 70.6556 78.4107 69.4316 79.6814C68.2076 80.9614 67.5816 82.4938 67.5816 84.3438C67.5816 86.1938 68.2076 87.7261 69.4316 89.0062C70.665 90.2863 72.2627 90.9029 74.1968 90.9029C75.9627 90.9029 77.3642 90.4544 78.4107 89.5948C79.4572 88.7072 80.0552 87.5673 80.214 86.2125H74.0193V84.7362H81.8211V84.7175Z" fill="#17479E"/>
<path d="M89.4641 92.4072C87.8383 92.4072 86.4368 91.8559 85.2969 90.7347C84.157 89.5948 83.6057 88.2119 83.6057 86.5675C83.6057 84.923 84.157 83.5402 85.2969 82.419C86.4368 81.279 87.8383 80.7278 89.4641 80.7278C91.0899 80.7278 92.4727 81.279 93.6033 82.419C94.7432 83.5402 95.3225 84.9137 95.3225 86.5675C95.3225 88.2213 94.7432 89.5948 93.6033 90.7347C92.4634 91.8559 91.0805 92.4072 89.4641 92.4072ZM89.4641 90.9776C90.6881 90.9776 91.7439 90.5478 92.5848 89.7162C93.4351 88.8379 93.8462 87.7915 93.8462 86.5768C93.8462 85.3622 93.4164 84.297 92.5848 83.4561C91.7346 82.5965 90.6881 82.1667 89.4641 82.1667C88.2401 82.1667 87.1843 82.5965 86.3434 83.4561C85.4931 84.3063 85.082 85.3528 85.082 86.5768C85.082 87.8008 85.5118 88.8473 86.3434 89.7162C87.1936 90.5665 88.2401 90.9776 89.4641 90.9776Z" fill="#17479E"/>
<path d="M97.7705 92.1455V75.8691H99.2468V92.1455H97.7705Z" fill="#17479E"/>
<path d="M107.936 77.7005C105.768 77.5323 104.722 78.4106 104.722 80.5596V81.0081H107.936V82.4376H104.722V92.1549H103.246V82.4376H101.349V81.0081H103.246V80.5596C103.246 77.6351 104.918 76.0841 107.927 76.2803V77.7098L107.936 77.7005Z" fill="#17479E"/>
<path d="M125.315 76.5325H126.885V92.1268H125.315V84.8388H116.84V92.1268H115.271V76.5325H116.84V83.3813H125.315V76.5325Z" fill="#17479E"/>
<path d="M139.797 80.9894H141.274V92.1362H139.797V89.9498C138.77 91.5756 137.275 92.3978 135.294 92.3978C133.705 92.3978 132.351 91.8466 131.22 90.7066C130.099 89.5667 129.548 88.1839 129.548 86.5675C129.548 84.951 130.099 83.5589 131.22 82.419C132.36 81.279 133.715 80.7278 135.294 80.7278C137.275 80.7278 138.77 81.5594 139.797 83.1758V80.9894ZM135.415 90.9683C136.639 90.9683 137.695 90.5385 138.536 89.7069C139.386 88.8286 139.797 87.7821 139.797 86.5675C139.797 85.3528 139.368 84.2877 138.536 83.4467C137.686 82.5871 136.639 82.1573 135.415 82.1573C134.191 82.1573 133.136 82.5871 132.295 83.4467C131.444 84.297 131.024 85.3435 131.024 86.5675C131.024 87.7915 131.454 88.8379 132.295 89.7069C133.145 90.5571 134.191 90.9683 135.415 90.9683Z" fill="#17479E"/>
<path d="M153.981 85.2968V92.1362H152.505V85.2968C152.505 83.3159 151.412 82.1573 149.477 82.1573C147.338 82.1573 145.862 83.4654 145.862 86.2965V92.1362H144.385V80.9894H145.862V82.7273C146.693 81.3912 147.936 80.7278 149.599 80.7278C152.29 80.7278 153.972 82.5124 153.972 85.2968H153.981Z" fill="#17479E"/>
<path d="M166.408 76.5325H167.884V92.1268H166.408V89.9405C165.38 91.5662 163.885 92.3885 161.904 92.3885C160.316 92.3885 158.961 91.8372 157.83 90.6973C156.709 89.5574 156.158 88.1745 156.158 86.5581C156.158 84.9417 156.709 83.5495 157.83 82.4096C158.97 81.2697 160.325 80.7184 161.904 80.7184C163.885 80.7184 165.38 81.55 166.408 83.1664V76.5232V76.5325ZM162.007 90.9776C163.24 90.9776 164.287 90.5478 165.128 89.7162C165.978 88.8379 166.398 87.7915 166.398 86.5768C166.398 85.3622 165.969 84.297 165.128 83.4561C164.277 82.5965 163.231 82.1667 162.007 82.1667C160.783 82.1667 159.737 82.5965 158.886 83.4561C158.036 84.3063 157.625 85.3528 157.625 86.5768C157.625 87.8008 158.055 88.8473 158.886 89.7162C159.737 90.5665 160.783 90.9776 162.007 90.9776Z" fill="#17479E"/>
<path d="M170.977 79.0553C170.547 78.6255 170.547 77.9621 170.977 77.5323C171.407 77.1025 172.07 77.1025 172.5 77.5323C172.93 77.9621 172.93 78.6255 172.5 79.0553C172.07 79.4851 171.407 79.4851 170.977 79.0553ZM170.996 92.1456V80.9988H172.472V92.1456H170.996Z" fill="#17479E"/>
<path d="M176.602 90.7347C175.48 89.5948 174.929 88.2119 174.929 86.5675C174.929 84.923 175.48 83.5402 176.602 82.419C177.723 81.279 179.124 80.7278 180.788 80.7278C183.002 80.7278 184.861 81.8677 185.665 83.6523L184.469 84.3437C183.871 83.0076 182.469 82.1573 180.788 82.1573C179.554 82.1573 178.508 82.5871 177.667 83.4467C176.817 84.297 176.396 85.3435 176.396 86.5675C176.396 87.7915 176.826 88.8379 177.667 89.7069C178.517 90.5571 179.564 90.9683 180.788 90.9683C182.46 90.9683 183.815 90.118 184.553 88.7819L185.777 89.492C184.871 91.2766 182.946 92.3885 180.778 92.3885C179.106 92.3885 177.704 91.8372 176.592 90.716H176.602V90.7347Z" fill="#17479E"/>
<path d="M197.363 80.9894H198.839V92.1362H197.363V89.9498C196.335 91.5756 194.84 92.3978 192.859 92.3978C191.271 92.3978 189.916 91.8466 188.786 90.7066C187.674 89.5667 187.113 88.1839 187.113 86.5675C187.113 84.951 187.664 83.5589 188.786 82.419C189.925 81.279 191.28 80.7278 192.859 80.7278C194.84 80.7278 196.335 81.5594 197.363 83.1758V80.9894ZM192.981 90.9683C194.205 90.9683 195.251 90.5385 196.101 89.7069C196.952 88.8286 197.372 87.7821 197.372 86.5675C197.372 85.3528 196.942 84.2877 196.101 83.4467C195.251 82.5871 194.205 82.1573 192.981 82.1573C191.757 82.1573 190.701 82.5871 189.86 83.4467C189.01 84.297 188.589 85.3435 188.589 86.5675C188.589 87.7915 189.019 88.8379 189.86 89.7069C190.71 90.5571 191.757 90.9683 192.981 90.9683Z" fill="#17479E"/>
<path d="M211.985 82.4189C213.125 83.5588 213.677 84.9416 213.677 86.5674C213.677 88.1932 213.125 89.576 211.985 90.7066C210.864 91.8465 209.509 92.3978 207.93 92.3978C205.949 92.3978 204.455 91.5662 203.427 89.9497V96.593H201.95V80.9987H203.427V83.1851C204.455 81.5593 205.949 80.7371 207.93 80.7371C209.519 80.7371 210.873 81.2883 211.985 82.4282V82.4189ZM207.818 90.9869C209.042 90.9869 210.089 90.5571 210.939 89.7255C211.789 88.8472 212.21 87.8007 212.21 86.5861C212.21 85.3714 211.78 84.3063 210.939 83.4654C210.089 82.6058 209.042 82.176 207.818 82.176C206.594 82.176 205.538 82.6058 204.697 83.4654C203.847 84.3156 203.427 85.3621 203.427 86.5861C203.427 87.8101 203.857 88.8566 204.697 89.7255C205.548 90.5758 206.594 90.9869 207.818 90.9869Z" fill="#17479E"/>
<path d="M231.953 76.5325H233.522V92.1268H232.186L223.497 79.4196V92.1268H221.927V76.5325H223.263L231.953 89.2396V76.5325Z" fill="#17479E"/>
<path d="M245.996 82.4843C247.024 83.6429 247.537 85.0257 247.537 86.6048C247.537 86.7543 247.519 87.0065 247.491 87.2962H237.708C237.998 89.548 239.754 90.9775 242.137 90.9775C243.828 90.9775 245.108 90.2207 245.725 89.0808L247.014 89.8376C246.033 91.426 244.277 92.4071 242.109 92.4071C240.343 92.4071 238.923 91.8558 237.83 90.7626C236.736 89.6694 236.185 88.2679 236.185 86.5768C236.185 84.8856 236.718 83.5308 237.811 82.4095C238.904 81.2883 240.287 80.7371 241.997 80.7371C243.707 80.7371 244.977 81.3164 245.986 82.503L245.996 82.4843ZM237.708 85.8666H246.014C245.865 84.68 245.416 83.7737 244.66 83.129C243.903 82.4843 243.015 82.1479 242.015 82.1479C239.698 82.1479 237.998 83.6709 237.708 85.8666Z" fill="#17479E"/>
<path d="M255.442 82.419H252.228V89.1744C252.228 91.0991 253.302 90.9309 255.442 90.8468V92.1362C252.321 92.6128 250.761 91.7532 250.761 89.165V82.4097H248.425V80.9801H250.761V78.3079L252.237 77.8594V80.9801H255.451V82.4097L255.442 82.419Z" fill="#17479E"/>
<path d="M271.307 80.9895H272.821L269.392 92.1363H267.794L264.916 83.1572L262.039 92.1363H260.441L257.012 80.9895H258.535L261.272 90.2396L264.197 80.9895H265.673L268.598 90.2396L271.335 80.9895H271.307Z" fill="#17479E"/>
<path d="M280.249 92.4072C278.623 92.4072 277.222 91.8559 276.082 90.7347C274.942 89.5948 274.391 88.2119 274.391 86.5675C274.391 84.923 274.942 83.5402 276.082 82.419C277.222 81.279 278.623 80.7278 280.249 80.7278C281.875 80.7278 283.258 81.279 284.398 82.419C285.537 83.5402 286.107 84.9137 286.107 86.5675C286.107 88.2213 285.528 89.5948 284.398 90.7347C283.258 91.8559 281.875 92.4072 280.249 92.4072ZM280.249 90.9776C281.473 90.9776 282.519 90.5478 283.37 89.7162C284.22 88.8379 284.64 87.7915 284.64 86.5768C284.64 85.3622 284.211 84.297 283.37 83.4561C282.519 82.5965 281.473 82.1667 280.249 82.1667C279.025 82.1667 277.969 82.5965 277.128 83.4561C276.278 84.3063 275.867 85.3528 275.867 86.5768C275.867 87.8008 276.297 88.8473 277.128 89.7162C277.979 90.5665 279.025 90.9776 280.249 90.9776Z" fill="#17479E"/>
<path d="M290.022 82.8393C290.714 81.4845 291.872 80.8118 293.545 80.8118V82.2413C291.517 82.2413 290.022 83.3812 290.022 85.932V92.1268H288.546V80.98H290.022V82.83V82.8393Z" fill="#17479E"/>
<path d="M304.561 92.1456H302.608L297.039 86.7731V92.1456H295.563V76.5513H297.039V85.9321L302.346 81.0081H304.346L298.59 86.3619L304.561 92.1549V92.1456Z" fill="#17479E"/>
<path d="M186.207 25.9937V33.1041C186.207 41.6814 183.338 48.7918 177.508 54.3606C171.762 59.9293 164.24 62.7604 154.822 62.7604C145.404 62.7604 136.976 59.7518 130.79 53.8373C124.596 47.8388 121.466 40.3733 121.466 31.4596C121.466 22.5459 124.605 15.0805 130.79 9.08195C136.985 2.98999 144.778 -0.00927734 154.102 -0.00927734C165.847 -0.00927734 176.069 5.39127 181.712 13.9686L172.285 19.1169C169.37 20.7053 165.791 20.6679 162.988 18.9207C160.718 17.5005 157.868 16.7997 154.457 16.7997C149.982 16.7997 146.301 18.1732 143.526 20.9202C140.751 23.6578 139.405 27.1803 139.405 31.5531C139.405 35.6642 140.657 39.2615 143.264 42.3635C145.861 45.3721 149.814 46.9138 155.186 46.9138C161.381 46.9138 165.595 44.7741 167.651 40.5696H154.289V35.0008C154.289 30.0301 158.41 26.003 163.502 26.003H186.225L186.207 25.9937Z" fill="#17479E"/>
<path d="M227.038 0.00927734H235.765C240.857 0.00927734 244.977 4.12976 244.977 9.22197V62.7696H236.251C231.158 62.7696 227.038 58.6491 227.038 53.5569V39.6257H211.799V62.7603H203.072C197.98 62.7603 193.859 58.6398 193.859 53.5476V0.00927734H202.586C207.678 0.00927734 211.799 4.12976 211.799 9.22197V22.2562H227.038V0.00927734Z" fill="#17479E"/>
<path d="M287.061 0.00927734H295.787C300.88 0.00927734 305 4.12976 305 9.22197V62.7696H295.507C292.48 62.7696 289.639 61.2746 287.92 58.7799L270.943 34.0757V62.7696H262.216C257.124 62.7696 253.003 58.6491 253.003 53.5569V0.00927734H262.515C265.542 0.00927734 268.383 1.50424 270.102 3.99895L287.079 28.7032V0.00927734H287.07H287.061Z" fill="#17479E"/>
<path d="M104.619 0.121338C98.8822 0.121338 94.2385 4.76506 94.2385 10.502C94.2385 16.2389 98.8822 20.8826 104.619 20.8826C110.356 20.8826 115 16.2389 115 10.502C115 4.76506 110.347 0.121338 104.619 0.121338ZM114.009 7.05422C114.065 6.95144 114.131 6.89538 114.224 6.90472C114.392 7.36255 114.533 7.82973 114.635 8.2969C114.514 8.381 114.327 8.2969 114.168 8.082C113.953 7.77367 113.869 7.30649 114.009 7.05422ZM113.925 8.97898C114.084 8.67999 114.364 8.69868 114.561 8.99767C114.738 9.27797 114.776 9.76383 114.645 10.0441C114.495 10.3525 114.215 10.3618 114.009 10.0815C113.804 9.78252 113.757 9.28732 113.925 8.97898ZM113.514 5.70875C113.766 6.01709 113.86 6.44689 113.729 6.68982C113.589 6.9421 113.271 6.89538 113.01 6.5777C112.739 6.26002 112.645 5.80219 112.795 5.5686C112.944 5.34436 113.262 5.40976 113.514 5.7181V5.70875ZM113.346 5.10143C113.234 5.05471 113.103 4.96127 112.991 4.83981C112.795 4.61556 112.673 4.35395 112.673 4.14839C112.916 4.45672 113.14 4.7744 113.346 5.10143ZM112.739 7.44665C112.916 7.16634 113.271 7.19437 113.524 7.51205C113.766 7.82039 113.832 8.30625 113.664 8.5959C113.495 8.90423 113.14 8.89489 112.879 8.57721C112.617 8.25019 112.552 7.74564 112.739 7.44665ZM113.327 9.54893C113.57 9.85727 113.589 10.3712 113.383 10.6982C113.168 11.0439 112.795 11.0626 112.542 10.7636C112.281 10.4459 112.262 9.91333 112.486 9.56762C112.701 9.2406 113.094 9.2406 113.327 9.54893ZM95.6307 8.60524C95.4345 8.34362 95.4719 7.8671 95.6961 7.52139C95.9204 7.17568 96.2847 7.10094 96.4903 7.35321C96.7052 7.61483 96.6865 8.11938 96.4342 8.48377C96.182 8.83883 95.8269 8.89489 95.6307 8.62393V8.60524ZM95.9951 10.6515C95.7895 10.9785 95.4532 11.0065 95.2476 10.6982C95.0421 10.4179 95.0421 9.91333 95.2289 9.59565C95.4251 9.26863 95.7615 9.22191 95.9764 9.50222C96.2007 9.80121 96.2193 10.3058 95.9951 10.6515ZM96.7146 8.79211C96.9762 8.42771 97.3966 8.381 97.6676 8.67064C97.9479 8.97898 97.9479 9.5209 97.6676 9.8853C97.3966 10.2404 96.9762 10.2684 96.7146 9.96939C96.4623 9.66106 96.4623 9.13782 96.7146 8.78277V8.79211ZM106.282 9.00701C105.927 9.39009 105.329 9.41813 104.937 9.06307C104.554 8.70802 104.516 8.11938 104.871 7.74564C105.226 7.3719 105.815 7.34387 106.208 7.69892C106.591 8.04463 106.628 8.63327 106.292 9.01635L106.282 9.00701ZM106.74 9.41813C107.086 9.03504 107.665 9.00701 108.039 9.37141C108.413 9.72646 108.441 10.3151 108.104 10.7075C107.759 11.0906 107.179 11.128 106.806 10.7729C106.422 10.4179 106.385 9.8199 106.74 9.42747V9.41813ZM105.703 11.5484C105.348 11.9315 104.75 11.9689 104.348 11.6138C103.946 11.2588 103.928 10.6421 104.283 10.259C104.638 9.85727 105.255 9.83858 105.638 10.1936C106.021 10.5487 106.058 11.1467 105.703 11.5484ZM104.414 7.33452C104.059 7.70826 103.47 7.74564 103.087 7.41862C102.713 7.09159 102.704 6.53098 103.049 6.16659C103.405 5.80219 103.984 5.76481 104.358 6.08249C104.741 6.40017 104.769 6.97013 104.414 7.33452ZM103.769 8.49312C104.152 8.84817 104.189 9.43681 103.825 9.83858C103.47 10.2217 102.872 10.259 102.479 9.90399C102.106 9.54893 102.078 8.96029 102.423 8.57721C102.778 8.19413 103.367 8.15675 103.76 8.49312H103.769ZM102.003 8.17544C101.648 8.55852 101.078 8.60524 100.732 8.27822C100.387 7.96054 100.377 7.39058 100.732 7.01684C101.078 6.6431 101.629 6.59639 101.984 6.90472C102.349 7.2224 102.358 7.79236 102.003 8.17544ZM100.34 6.66179C100.013 7.02619 99.4896 7.09159 99.1812 6.81129C98.8822 6.53098 98.9196 6.01709 99.2373 5.66204C99.555 5.30698 100.069 5.23223 100.377 5.49385C100.695 5.76481 100.686 6.28805 100.34 6.66179ZM99.6951 7.76433C100.022 8.082 100.022 8.64261 99.6951 9.0257C99.3774 9.39944 98.8636 9.44616 98.5552 9.12848C98.2469 8.82014 98.2562 8.25953 98.5552 7.89513C98.8636 7.52139 99.3588 7.46533 99.6858 7.77367H99.6951V7.76433ZM99.5923 11.8568C99.9007 11.4924 100.433 11.4737 100.807 11.8194C101.181 12.1745 101.218 12.7538 100.9 13.1182C100.592 13.4732 100.05 13.4732 99.6951 13.1182C99.3401 12.7724 99.2934 12.2118 99.5923 11.8474V11.8568ZM100.153 10.7169C99.7979 10.3712 99.7792 9.79187 100.106 9.40878C100.433 9.0257 100.994 8.98832 101.358 9.32469C101.723 9.6704 101.76 10.2684 101.414 10.6608C101.087 11.0439 100.517 11.0719 100.162 10.7169H100.153ZM101.844 11.0719C102.19 10.6888 102.778 10.6608 103.162 11.0159C103.545 11.3709 103.582 11.9689 103.227 12.3613C102.881 12.7351 102.293 12.7631 101.91 12.408C101.526 12.053 101.489 11.4644 101.825 11.0719H101.835H101.844ZM103.162 15.1457C103.489 14.8 104.087 14.7813 104.46 15.099C104.834 15.4167 104.871 15.9399 104.526 16.2576C104.199 16.5753 103.629 16.5846 103.255 16.2949C102.881 15.9866 102.835 15.4727 103.162 15.1364V15.1457ZM103.778 14.0618C103.395 13.7161 103.358 13.1368 103.694 12.7631C104.049 12.38 104.647 12.352 105.04 12.707C105.423 13.0527 105.451 13.632 105.096 14.0058C104.741 14.3702 104.152 14.4076 103.76 14.0618H103.769H103.778ZM105.554 14.3795C105.909 14.0151 106.488 13.9684 106.862 14.2861C107.226 14.5944 107.226 15.1364 106.871 15.4914C106.525 15.8465 105.965 15.8932 105.6 15.5848C105.226 15.2765 105.217 14.7439 105.554 14.3795ZM106.226 13.249C105.853 12.9033 105.824 12.3146 106.18 11.9315C106.535 11.5484 107.123 11.5111 107.497 11.8474C107.861 12.1931 107.88 12.7724 107.534 13.1555C107.189 13.5386 106.6 13.576 106.226 13.249ZM107.945 13.5293C108.291 13.1555 108.842 13.0995 109.179 13.4171C109.496 13.7255 109.496 14.2581 109.16 14.6318C108.833 14.9962 108.282 15.0616 107.955 14.772C107.609 14.473 107.6 13.9217 107.955 13.5386L107.945 13.5293ZM108.581 12.38C108.226 12.053 108.207 11.455 108.543 11.0719C108.87 10.6888 109.422 10.6608 109.749 10.9878C110.076 11.3149 110.094 11.8848 109.786 12.2772C109.468 12.651 108.936 12.707 108.581 12.38ZM110.151 12.6416C110.459 12.2679 110.945 12.2212 111.234 12.5295C111.505 12.8285 111.496 13.3611 111.197 13.7255C110.898 14.0899 110.421 14.1553 110.132 13.875C109.823 13.576 109.833 13.0341 110.141 12.6603H110.151V12.6416ZM110.739 11.5298C110.431 11.2027 110.412 10.6421 110.692 10.2684C110.973 9.90399 111.44 9.8853 111.73 10.2123C112.01 10.53 112.029 11.0813 111.767 11.427C111.496 11.7914 111.029 11.8381 110.73 11.5204H110.739V11.5298ZM110.702 7.55877C110.44 7.88579 109.936 7.88579 109.59 7.54942C109.235 7.20371 109.169 6.66179 109.45 6.34411C109.721 6.03578 110.216 6.06381 110.543 6.39083C110.87 6.71785 110.945 7.24109 110.692 7.57745H110.702V7.55877ZM110.235 8.61458C110.562 8.96029 110.608 9.5209 110.328 9.87596C110.029 10.2404 109.506 10.259 109.16 9.92267C108.805 9.56762 108.758 8.98832 109.076 8.62393C109.384 8.26887 109.898 8.25953 110.235 8.60524V8.61458ZM109.039 5.94234C108.758 6.26002 108.216 6.25068 107.843 5.92365C107.469 5.59663 107.413 5.08274 107.703 4.7744C107.983 4.47541 108.506 4.50344 108.87 4.82112C109.235 5.1388 109.3 5.64335 109.029 5.95168L109.039 5.94234ZM108.534 6.97013C108.898 7.31584 108.955 7.87645 108.646 8.2315C108.329 8.5959 107.768 8.60524 107.385 8.25019C107.002 7.89513 106.964 7.32518 107.282 6.96078C107.6 6.61507 108.16 6.60573 108.534 6.96078V6.97013ZM107.273 4.41935C106.964 4.71834 106.422 4.71834 106.039 4.41935C105.675 4.12036 105.628 3.65318 105.937 3.38222C106.236 3.11126 106.768 3.1206 107.133 3.39156C107.497 3.67187 107.562 4.1297 107.273 4.41935ZM106.731 5.37239C107.105 5.69007 107.161 6.22265 106.843 6.5777C106.516 6.93275 105.937 6.9421 105.544 6.61507C105.152 6.28805 105.124 5.73678 105.46 5.40042C105.787 5.0734 106.357 5.05471 106.731 5.38173H106.721L106.731 5.37239ZM105.525 3.06454C105.208 3.3355 104.675 3.34485 104.311 3.10192C103.965 2.84964 103.946 2.45721 104.264 2.20494C104.572 1.95266 105.096 1.94332 105.432 2.16757C105.787 2.4105 105.815 2.80292 105.525 3.06454ZM104.946 3.94283C105.311 4.22314 105.348 4.71834 105.012 5.03602C104.666 5.36304 104.105 5.40042 103.722 5.09208C103.358 4.79309 103.348 4.30723 103.685 3.98955C104.012 3.68121 104.572 3.66253 104.937 3.93349L104.946 3.94283ZM103.292 3.69056C102.947 3.99889 102.405 4.05495 102.078 3.80268C101.76 3.55975 101.769 3.12995 102.096 2.84964C102.423 2.56934 102.947 2.52262 103.264 2.73752C103.61 2.96176 103.61 3.40091 103.274 3.70924H103.283L103.292 3.69056ZM102.629 4.64359C102.984 4.91456 102.984 5.43779 102.638 5.79285C102.283 6.1479 101.732 6.20396 101.377 5.90497C101.05 5.62466 101.059 5.11077 101.396 4.76506C101.741 4.41935 102.283 4.36329 102.629 4.64359ZM101.022 4.47541C100.676 4.82112 100.172 4.88653 99.8727 4.64359C99.5924 4.40066 99.6297 3.96152 99.9661 3.65318C100.284 3.3355 100.788 3.25141 101.078 3.47566C101.386 3.6999 101.358 4.14839 101.022 4.48475V4.47541ZM99.6578 3.4196C99.3401 3.72793 98.8822 3.83071 98.6487 3.64384C98.4244 3.46631 98.4992 3.08323 98.8075 2.80292C99.1158 2.52262 99.5456 2.41984 99.7886 2.55999C100.041 2.72818 99.9848 3.10192 99.6671 3.41025L99.6578 3.4196ZM99.0131 4.3446C99.2747 4.5595 99.228 5.02668 98.9103 5.38173C98.5926 5.73678 98.1348 5.81153 97.9012 5.57794C97.6769 5.3537 97.7237 4.89587 98.0226 4.56885C98.3216 4.24182 98.7608 4.13904 99.0131 4.35395V4.3446ZM98.2843 6.40017C98.5552 6.67113 98.5365 7.18503 98.2282 7.55877C97.9292 7.92316 97.4901 7.98857 97.2284 7.70826C96.9855 7.4373 97.0229 6.93275 97.2938 6.5777C97.5742 6.22265 98.0133 6.1479 98.2749 6.40017H98.2843ZM97.6209 12.5482C97.8732 12.2025 98.3403 12.2025 98.6673 12.5482C98.9944 12.8939 99.0504 13.4358 98.7888 13.7629C98.5272 14.0805 98.0694 14.0618 97.7517 13.7255C97.4433 13.3985 97.3779 12.8565 97.6115 12.5389L97.6209 12.5482ZM98.0881 11.5017C97.7797 11.1747 97.7423 10.6141 98.032 10.2497C98.3123 9.8853 98.8075 9.84793 99.1252 10.1843C99.4522 10.53 99.4896 11.0906 99.1906 11.4737C98.8916 11.8381 98.4057 11.8474 98.0881 11.5111V11.5017ZM99.1906 14.1646C99.4615 13.8376 99.9754 13.8469 100.34 14.1833C100.704 14.529 100.77 15.0616 100.48 15.3699C100.209 15.6689 99.6951 15.6409 99.3401 15.3232C98.985 14.9962 98.9196 14.4823 99.1812 14.1646H99.1906ZM100.62 17.6591C100.882 17.4162 101.386 17.4442 101.751 17.7245C102.115 17.9955 102.181 18.4066 101.91 18.6308C101.648 18.8457 101.162 18.8083 100.816 18.5467C100.461 18.2851 100.387 17.8833 100.62 17.6498V17.6591ZM101.059 16.8369C100.695 16.5285 100.629 16.052 100.9 15.753C101.199 15.4447 101.741 15.454 102.115 15.7717C102.489 16.0894 102.545 16.5753 102.237 16.8742C101.938 17.1545 101.414 17.1359 101.05 16.8369H101.059ZM101.442 14.7626C101.069 14.4356 101.013 13.875 101.33 13.5199C101.648 13.1555 102.227 13.1462 102.62 13.5012C103.003 13.8469 103.04 14.4076 102.713 14.7533C102.395 15.099 101.825 15.099 101.452 14.7533L101.442 14.7626ZM102.676 17.2106C102.984 16.9303 103.526 16.9303 103.909 17.2106C104.273 17.4816 104.311 17.9301 103.993 18.1917C103.685 18.4533 103.162 18.4533 102.807 18.1917C102.442 17.9301 102.386 17.5003 102.685 17.2106H102.676ZM104.395 18.4626C104.713 18.201 105.245 18.1823 105.582 18.4066C105.909 18.6215 105.909 19.0139 105.6 19.2475C105.292 19.4904 104.778 19.5091 104.46 19.3036C104.115 19.098 104.096 18.7243 104.395 18.4626ZM105.002 17.6404C104.647 17.3788 104.629 16.9116 104.956 16.6033C105.301 16.2856 105.853 16.2482 106.217 16.5192C106.563 16.7902 106.572 17.2573 106.217 17.5563C105.89 17.8553 105.339 17.8833 105.002 17.6404ZM106.609 17.8366C106.936 17.5376 107.478 17.4722 107.777 17.6965C108.076 17.9114 108.048 18.3131 107.721 18.5934C107.404 18.8644 106.89 18.9205 106.591 18.7336C106.273 18.528 106.282 18.1263 106.6 17.8366H106.609ZM107.254 16.9116C106.927 16.6593 106.927 16.1735 107.263 15.8184C107.609 15.4634 108.151 15.4073 108.478 15.6783C108.786 15.9399 108.758 16.4164 108.431 16.7621C108.104 17.0891 107.562 17.1452 107.245 16.9116H107.254ZM108.777 17.0331C109.104 16.7154 109.599 16.622 109.87 16.8369C110.122 17.0424 110.076 17.4629 109.758 17.7712C109.44 18.0796 108.973 18.173 108.702 17.9768C108.422 17.7712 108.45 17.3508 108.786 17.0331H108.777ZM109.44 16.0614C109.141 15.8091 109.169 15.3139 109.496 14.9588C109.823 14.5944 110.319 14.529 110.59 14.7906C110.851 15.0523 110.814 15.5288 110.506 15.8745C110.197 16.2202 109.711 16.3043 109.44 16.0707V16.0614ZM110.805 16.1455C111.113 15.7997 111.533 15.7156 111.748 15.9305C111.954 16.1361 111.888 16.5566 111.599 16.8742C111.318 17.1919 110.889 17.304 110.674 17.1172C110.431 16.921 110.496 16.4912 110.795 16.1455H110.805ZM111.421 15.1457C111.178 14.8934 111.216 14.4076 111.505 14.0432C111.786 13.6788 112.206 13.6134 112.44 13.875C112.655 14.1273 112.608 14.6038 112.337 14.9401C112.066 15.2858 111.655 15.3886 111.431 15.1457H111.421ZM112.066 12.9873C111.814 12.707 111.823 12.1651 112.085 11.8007C112.346 11.4457 112.748 11.3989 112.982 11.6979C113.206 11.9782 113.196 12.4921 112.944 12.8378C112.692 13.1929 112.309 13.2583 112.057 12.9873H112.066ZM111.3 2.6908C111.365 2.74686 111.44 2.81227 111.505 2.86833C111.786 3.12995 112.047 3.39156 112.3 3.67187C112.141 3.72793 111.87 3.62515 111.617 3.40091C111.356 3.14863 111.234 2.85898 111.29 2.68146H111.3V2.6908ZM112.468 5.17617C112.309 5.41911 111.935 5.34436 111.617 5.03602C111.309 4.71834 111.197 4.28854 111.375 4.0643C111.543 3.85874 111.916 3.94283 112.206 4.23248C112.486 4.53147 112.608 4.95193 112.458 5.16683H112.468V5.17617ZM111.309 5.86759C111.515 5.60598 111.926 5.65269 112.215 5.97037C112.514 6.28805 112.589 6.76457 112.393 7.05422C112.197 7.35321 111.776 7.31584 111.468 6.98881C111.15 6.66179 111.066 6.1479 111.29 5.87694H111.3L111.309 5.86759ZM112.047 7.98857C112.346 8.31559 112.393 8.83883 112.159 9.17519C111.916 9.5209 111.477 9.53025 111.169 9.18454C110.851 8.83883 110.805 8.2969 111.057 7.9512C111.309 7.63352 111.739 7.64286 112.038 7.96988H112.047V7.98857ZM110.889 2.36378C110.711 2.42918 110.384 2.32641 110.113 2.1115C109.898 1.94332 109.786 1.75645 109.767 1.60696C110.151 1.8312 110.515 2.08347 110.879 2.35444L110.889 2.36378ZM109.833 2.6908C110.029 2.51328 110.45 2.58802 110.758 2.85898C111.076 3.12995 111.188 3.52237 111.019 3.70924C110.842 3.92414 110.403 3.85874 110.076 3.55975C109.73 3.26076 109.637 2.87767 109.852 2.68146H109.842L109.833 2.6908ZM109.711 4.3446C109.936 4.09233 110.393 4.14839 110.72 4.45672C111.047 4.76506 111.141 5.23223 110.926 5.49385C110.702 5.76481 110.244 5.73678 109.889 5.40976C109.534 5.08274 109.459 4.61556 109.693 4.35395H109.702L109.711 4.3446ZM108.964 1.17715C108.852 1.13978 108.74 1.09306 108.637 1.02766C108.749 1.07438 108.861 1.13044 108.964 1.17715ZM108.235 1.49483C108.45 1.33599 108.898 1.39205 109.216 1.63499C109.543 1.87792 109.646 2.20494 109.459 2.38247C109.244 2.55999 108.786 2.50393 108.45 2.261C108.104 2.00873 108.02 1.67236 108.244 1.49483H108.235ZM109.113 3.04586C109.468 3.32616 109.553 3.75596 109.319 3.98955C109.067 4.24182 108.571 4.20445 108.207 3.90546C107.843 3.60646 107.777 3.17666 108.039 2.93373C108.291 2.70949 108.777 2.75621 109.123 3.02717L109.113 3.04586ZM106.665 0.523109C106.665 0.523109 106.768 0.476391 106.834 0.467048C107.161 0.532452 107.497 0.625887 107.824 0.738009C108.02 0.915536 108.039 1.12109 107.861 1.2519C107.618 1.41074 107.151 1.37337 106.824 1.15847C106.497 0.95291 106.422 0.672605 106.675 0.523109H106.665ZM106.357 1.76579C106.619 1.56024 107.123 1.58827 107.46 1.82186C107.805 2.06479 107.88 2.42918 107.628 2.65343C107.357 2.87767 106.843 2.85898 106.488 2.60671C106.133 2.35444 106.077 1.9807 106.366 1.76579H106.357ZM106.236 0.354926C105.974 0.467048 105.563 0.448361 105.264 0.298864C105.226 0.280177 105.198 0.26149 105.17 0.242803C105.525 0.26149 105.871 0.298864 106.226 0.354926H106.236ZM104.778 0.822101C105.049 0.644574 105.525 0.644574 105.843 0.822101C106.17 0.999627 106.217 1.32665 105.955 1.51352C105.675 1.71908 105.17 1.71908 104.825 1.51352C104.498 1.31731 104.47 0.999627 104.759 0.822101H104.769H104.778ZM103.162 0.345582C103.629 0.280177 104.105 0.242803 104.582 0.242803C104.666 0.364269 104.6 0.513765 104.423 0.644574C104.143 0.822101 103.647 0.859475 103.358 0.709979C103.18 0.616544 103.115 0.485735 103.162 0.354926V0.345582ZM103.872 1.22387C104.189 1.4014 104.199 1.74711 103.89 1.99004C103.573 2.24231 103.059 2.27034 102.741 2.08347C102.433 1.88726 102.442 1.55089 102.76 1.31731C103.068 1.09306 103.554 1.05569 103.862 1.22387H103.872ZM101.33 0.79407C101.685 0.681948 102.04 0.57917 102.395 0.495078C102.414 0.495078 102.451 0.504422 102.479 0.513765C102.75 0.635231 102.732 0.915536 102.433 1.13044C102.124 1.35468 101.648 1.42943 101.386 1.27993C101.181 1.16781 101.171 0.971597 101.34 0.775383H101.33V0.79407ZM101.816 1.8312C102.115 1.99938 102.087 2.36378 101.76 2.65343C101.433 2.93373 100.928 3.01782 100.648 2.82161C100.387 2.64408 100.424 2.27969 100.751 2.01807C101.069 1.75645 101.545 1.67236 101.816 1.84989V1.8312ZM99.3775 1.69105C99.7418 1.47615 100.106 1.27993 100.48 1.12109C100.517 1.12109 100.545 1.13978 100.573 1.15847C100.816 1.27059 100.751 1.57892 100.452 1.8312C100.134 2.09282 99.6858 2.1956 99.4709 2.05544C99.3494 1.97135 99.3214 1.84989 99.3775 1.70039V1.69105ZM98.8542 2.03676C98.9196 2.18625 98.8168 2.43853 98.5833 2.66277C98.2843 2.94308 97.9012 3.07389 97.7143 2.93373C98.0787 2.60671 98.4524 2.30772 98.8449 2.03676H98.8542ZM97.1163 3.75596C97.3873 3.44763 97.761 3.3355 97.9572 3.485C98.1628 3.64384 98.0787 4.04561 97.7984 4.37263C97.4994 4.69031 97.1163 4.80243 96.9295 4.62491C96.7613 4.45672 96.836 4.0643 97.107 3.75596H97.1163ZM97.1817 5.31633C97.3873 5.53123 97.3406 5.98906 97.0603 6.34411C96.7893 6.68982 96.4156 6.77391 96.2194 6.54967C96.0418 6.33477 96.0979 5.88628 96.3595 5.55926C96.6211 5.23223 96.9855 5.12011 97.1911 5.31633H97.1817ZM96.3502 4.44738C96.4903 4.61556 96.4062 5.00799 96.1539 5.32567C95.9577 5.57794 95.7335 5.69941 95.584 5.65269C95.8082 5.23223 96.0605 4.83046 96.3502 4.43804V4.44738ZM95.313 6.20396C95.4345 6.1479 95.5653 6.15724 95.6401 6.26936C95.7989 6.48426 95.7428 6.93275 95.5186 7.26912C95.2943 7.59614 95.0047 7.68958 94.8552 7.46533C94.8552 7.45599 94.8459 7.42796 94.8365 7.41862C94.958 7.0075 95.1168 6.61507 95.3037 6.2133H95.313V6.20396ZM94.631 8.19413C94.7898 8.05397 94.958 8.07266 95.0888 8.24084C95.257 8.49312 95.2383 8.96964 95.0421 9.29666C94.8645 9.61434 94.5842 9.66106 94.4347 9.39944C94.4815 8.98832 94.5469 8.5959 94.6403 8.18478H94.631V8.19413ZM94.6777 13.0434C94.6123 12.7818 94.5562 12.5108 94.5095 12.2399C94.6496 12.4641 94.715 12.8005 94.6777 13.0434ZM94.7337 11.3335C94.6496 11.5017 94.5282 11.5765 94.4161 11.5484C94.3693 11.0626 94.3506 10.5767 94.3693 10.0909C94.4815 10.0535 94.5936 10.1095 94.687 10.259C94.8552 10.5393 94.8832 11.0252 94.7337 11.3242V11.3335ZM95.6868 14.6879C95.5933 14.8467 95.4438 14.8654 95.2757 14.7813C95.1075 14.4076 94.958 14.0151 94.8365 13.632C94.8365 13.6134 94.8365 13.5947 94.8552 13.576C94.9767 13.3144 95.2663 13.3517 95.4906 13.6694C95.7335 13.9871 95.8176 14.4449 95.6681 14.6972H95.6774L95.6868 14.6879ZM95.7709 12.7724C95.6027 13.0527 95.2943 13.0341 95.0701 12.7257C94.8552 12.4267 94.8085 11.9502 94.9673 11.6606C95.1262 11.3522 95.4345 11.3522 95.6587 11.6606C95.9017 11.9782 95.939 12.4828 95.7615 12.7724H95.7709ZM95.9858 15.0336C96.1353 14.7906 96.4716 14.8374 96.7613 15.155C97.0416 15.4727 97.1444 15.9212 96.9855 16.1548C96.8267 16.3697 96.481 16.3043 96.21 15.996C95.9484 15.697 95.8456 15.2672 95.9671 15.0242H95.9764L95.9858 15.0336ZM96.3502 16.5846C96.4903 16.622 96.6491 16.7061 96.7986 16.8649C97.0042 17.0705 97.1163 17.3227 97.1257 17.5096C96.8547 17.2106 96.5931 16.9023 96.3502 16.5753V16.5846ZM97.0696 14.3235C96.8734 14.5944 96.4997 14.5664 96.2287 14.23C95.9671 13.9124 95.883 13.4358 96.0699 13.1368C96.2474 12.8378 96.6305 12.8565 96.9108 13.1836C97.1911 13.5106 97.2752 14.0245 97.0696 14.3141V14.3235ZM96.3875 12.1931C96.1259 11.8755 96.0885 11.3522 96.3034 11.0346C96.5183 10.6888 96.9295 10.6702 97.2004 10.9878C97.4807 11.3149 97.5181 11.8661 97.2845 12.1931C97.0603 12.5202 96.6492 12.5108 96.3875 12.1931ZM97.3406 16.5285C97.5088 16.3043 97.9105 16.3697 98.2375 16.678C98.5552 16.9864 98.6673 17.4068 98.4805 17.6124C98.303 17.8086 97.9105 17.7245 97.6022 17.4442C97.2938 17.1639 97.1817 16.7528 97.3499 16.5379H97.3406V16.5285ZM97.7423 18.1263C97.6863 18.0702 97.6302 18.0235 97.5742 17.9674C97.7423 17.9487 98.004 18.0515 98.2469 18.2384C98.4618 18.4159 98.5926 18.6402 98.5926 18.8083C98.3123 18.5934 98.0226 18.3692 97.7517 18.1263H97.7423ZM98.5833 15.8838C98.3684 16.1454 97.9386 16.0894 97.6302 15.7717C97.3219 15.454 97.2284 14.9775 97.4247 14.7159C97.6302 14.4356 98.0694 14.4636 98.3964 14.8C98.7234 15.127 98.8075 15.6222 98.5739 15.8932H98.5833V15.8838ZM99.2186 19.2381C99.3214 19.2381 99.4615 19.2568 99.5923 19.3316C99.7886 19.4344 99.9381 19.5839 99.9754 19.7053C99.7138 19.5558 99.4522 19.397 99.2093 19.2288L99.2186 19.2381ZM100.06 18.9111C99.854 19.0793 99.4335 19.0139 99.1065 18.7523C98.7795 18.4907 98.6767 18.1263 98.8542 17.9487C99.0504 17.7432 99.4896 17.8086 99.8353 18.0889C100.181 18.3599 100.274 18.7336 100.06 18.9205V18.9111ZM99.1812 17.248C98.8355 16.949 98.7514 16.5098 98.9663 16.2482C99.2093 15.9866 99.6858 16.024 100.031 16.3417C100.387 16.6593 100.461 17.1172 100.209 17.3694C99.9661 17.6124 99.4989 17.5657 99.1625 17.2573H99.1719L99.1812 17.248ZM101.667 20.023C101.442 20.1725 100.994 20.1164 100.676 19.9015C100.349 19.6866 100.246 19.369 100.461 19.2101C100.676 19.0419 101.143 19.0887 101.498 19.3222C101.844 19.5465 101.919 19.8642 101.676 20.0323H101.667V20.023ZM103.358 20.7051C102.872 20.649 102.386 20.5462 101.91 20.4248C101.919 20.3687 101.966 20.3033 102.031 20.2566C102.274 20.1071 102.741 20.1351 103.068 20.322C103.274 20.4341 103.367 20.5836 103.339 20.7051H103.348H103.358ZM103.573 19.7614C103.302 19.9576 102.807 19.9389 102.479 19.724C102.134 19.5091 102.068 19.1634 102.33 18.9485C102.601 18.7336 103.115 18.7429 103.47 18.9672C103.816 19.1914 103.853 19.5465 103.573 19.7427V19.7614ZM105.086 20.593C104.815 20.7611 104.339 20.7705 104.04 20.6116C103.722 20.4528 103.685 20.1725 103.956 19.9763C104.236 19.7801 104.741 19.7707 105.058 19.9389C105.367 20.1071 105.376 20.3967 105.096 20.5743H105.086V20.593ZM105.441 20.7518C105.703 20.6023 106.086 20.5556 106.366 20.6397C106.058 20.6957 105.75 20.7331 105.441 20.7518ZM105.974 20.2099C105.675 20.051 105.675 19.7427 105.974 19.5185C106.292 19.2755 106.796 19.2381 107.076 19.4063C107.357 19.5652 107.329 19.8829 107.02 20.0978C106.721 20.3127 106.245 20.3594 105.965 20.2099H105.974ZM107.133 20.4808C107.17 20.3967 107.245 20.322 107.347 20.2566C107.656 20.0417 108.114 19.9576 108.347 20.0884H108.366C107.955 20.2472 107.544 20.3874 107.123 20.4902L107.133 20.4808ZM107.973 19.6025C107.703 19.4531 107.749 19.126 108.067 18.8551C108.394 18.5841 108.861 18.4907 109.123 18.6589C109.366 18.8177 109.3 19.1447 109.001 19.4063C108.693 19.6586 108.235 19.752 107.992 19.6025H107.983H107.973ZM109.039 19.7801C109.085 19.696 109.151 19.6212 109.254 19.5371C109.496 19.3409 109.786 19.2381 110.001 19.2568C109.683 19.4531 109.366 19.6212 109.029 19.7801H109.039ZM110.805 18.5654C110.506 18.8364 110.094 18.9485 109.88 18.8177C109.655 18.6682 109.721 18.3131 110.029 18.0235C110.347 17.7245 110.767 17.6124 110.973 17.7806C111.169 17.9394 111.085 18.2851 110.795 18.5654H110.805ZM112.225 17.4162C112.057 17.6124 111.87 17.7899 111.692 17.9581C111.674 17.9581 111.655 17.9487 111.645 17.9394C111.468 17.7993 111.552 17.4255 111.842 17.1172C112.122 16.8088 112.477 16.6874 112.636 16.8462C112.645 16.8556 112.655 16.8836 112.673 16.8929C112.533 17.0705 112.393 17.248 112.225 17.4162ZM113.178 15.9492C112.926 16.2669 112.589 16.379 112.412 16.2109C112.234 16.0146 112.3 15.5848 112.561 15.2391C112.823 14.8934 113.178 14.8 113.337 15.0149C113.495 15.2111 113.421 15.6316 113.178 15.9492ZM113.094 14.2581C112.898 14.0151 112.944 13.5386 113.187 13.1929C113.43 12.8472 113.757 12.7818 113.925 13.0341C114.084 13.277 114.047 13.7255 113.823 14.0618C113.608 14.3889 113.281 14.4823 113.094 14.2674V14.2581ZM113.785 15.1083C113.738 14.8934 113.823 14.5757 113.991 14.3141C114.075 14.1927 114.159 14.0992 114.243 14.0525C114.103 14.4169 113.963 14.772 113.785 15.1177V15.1083ZM113.626 12.1651C113.421 11.8942 113.43 11.3896 113.626 11.0532C113.823 10.7262 114.14 10.6982 114.318 10.9691C114.486 11.2401 114.486 11.7166 114.308 12.0343C114.112 12.3613 113.804 12.4174 113.626 12.1558V12.1651ZM114.458 13.4078C114.458 13.4078 114.439 13.3891 114.42 13.3611C114.28 13.1368 114.318 12.6697 114.505 12.352C114.589 12.2118 114.673 12.1277 114.757 12.0904C114.691 12.5295 114.589 12.978 114.458 13.4078ZM114.822 10.3712C114.822 10.3712 114.841 10.3151 114.869 10.2871C114.869 10.6515 114.869 11.0252 114.832 11.3896C114.682 11.128 114.682 10.6608 114.832 10.3618H114.822V10.3712Z" fill="#E31D42"/>
<path d="M115 33.4684L103.33 55.0986C97.8078 65.3204 83.1385 65.3204 77.6071 55.0986L47.8948 0.00927734H66.4323C71.3937 0.00927734 75.9533 2.72824 78.3079 7.09165L91.0991 30.8055C96.0979 40.0555 108.571 40.9338 115 33.459V33.4684Z" fill="#E31D42"/>
<path d="M68.4598 33.4684L56.7897 55.0986C51.2677 65.3204 36.5984 65.3204 31.0671 55.0986L1.35474 0.00927734H19.8922C24.8536 0.00927734 29.4133 2.72824 31.7678 7.101L44.5591 30.8148C49.5579 40.0649 62.0314 40.9432 68.4598 33.4684Z" fill="#E31D42"/>
</g>
<defs>
<clipPath id="clip0_14534_163180">
<rect width="305" height="96.5838" fill="white"/>
</clipPath>
</defs>
</svg>
